<svg width="28" height="28" viewBox="0 0 28 28" fill="none" xmlns="http://www.w3.org/2000/svg">
<rect width="28" height="28" rx="6" fill="#FF4D14" fill-opacity="0.1"/>
<path d="M14.4166 10.6667C14.4166 10.8968 14.23 11.0833 13.9999 11.0833C13.7698 11.0833 13.5833 10.8968 13.5833 10.6667C13.5833 10.4365 13.7698 10.25 13.9999 10.25C14.23 10.25 14.4166 10.4365 14.4166 10.6667Z" fill="#FF4D14" stroke="#FF4D14" stroke-width="1.2"/>
<path d="M14.4166 14C14.4166 14.2301 14.23 14.4167 13.9999 14.4167C13.7698 14.4167 13.5833 14.2301 13.5833 14C13.5833 13.7699 13.7698 13.5833 13.9999 13.5833C14.23 13.5833 14.4166 13.7699 14.4166 14Z" fill="#FF4D14" stroke="#FF4D14" stroke-width="1.2"/>
<path d="M14.4166 17.3333C14.4166 17.5634 14.23 17.75 13.9999 17.75C13.7698 17.75 13.5833 17.5634 13.5833 17.3333C13.5833 17.1032 13.7698 16.9167 13.9999 16.9167C14.23 16.9167 14.4166 17.1032 14.4166 17.3333Z" fill="#FF4D14" stroke="#FF4D14" stroke-width="1.2"/>
</svg>
