<svg width="48" height="48" viewBox="0 0 48 48" fill="none" xmlns="http://www.w3.org/2000/svg">
<rect width="48" height="48" rx="8" fill="#353535"/>
<g clip-path="url(#clip0_26_760)">
<path fill-rule="evenodd" clip-rule="evenodd" d="M20.5 12C20.7761 12 21 12.2239 21 12.5V15H27V12.5C27 12.2239 27.2239 12 27.5 12C27.7761 12 28 12.2239 28 12.5V15H29.2619C31.3264 15 33 16.6736 33 18.7381V20H35.5C35.7761 20 36 20.2239 36 20.5C36 20.7761 35.7761 21 35.5 21H33V27H35.5C35.7761 27 36 27.2239 36 27.5C36 27.7761 35.7761 28 35.5 28H33V29.2619C33 31.3264 31.3264 33 29.2619 33H28V35.5C28 35.7761 27.7761 36 27.5 36C27.2239 36 27 35.7761 27 35.5V33H21V35.5C21 35.7761 20.7761 36 20.5 36C20.2239 36 20 35.7761 20 35.5V33H18.7381C16.6736 33 15 31.3264 15 29.2619V28H12.5C12.2239 28 12 27.7761 12 27.5C12 27.2239 12.2239 27 12.5 27H15V21H12.5C12.2239 21 12 20.7761 12 20.5C12 20.2239 12.2239 20 12.5 20H15V18.7381C15 16.6736 16.6736 15 18.7381 15H20V12.5C20 12.2239 20.2239 12 20.5 12ZM16 27.5V29.2619C16 30.7741 17.2259 32 18.7381 32H20.5H27.5H29.2619C30.7741 32 32 30.7741 32 29.2619V27.5V20.5V18.7381C32 17.2259 30.7741 16 29.2619 16H27.5H20.5H18.7381C17.2259 16 16 17.2259 16 18.7381V20.5V27.5Z" fill="#BABABA"/>
</g>
<defs>
<clipPath id="clip0_26_760">
<rect width="24" height="24" fill="white" transform="translate(12 12)"/>
</clipPath>
</defs>
</svg>
