<svg width="48" height="48" viewBox="0 0 48 48" fill="none" xmlns="http://www.w3.org/2000/svg">
<g clip-path="url(#clip0_2154_637)">
<rect width="48" height="48" rx="6" fill="#353535"/>
<path d="M-8 -8H56V56H-8V-8Z" fill="url(#paint0_linear_2154_637)"/>
<path d="M-8 -8H56V56H-8V-8Z" fill="url(#paint1_linear_2154_637)"/>
<path d="M13.125 17.625C13.125 15.9681 14.4681 14.625 16.125 14.625H31.875C33.5319 14.625 34.875 15.9681 34.875 17.625V30.375C34.875 32.0319 33.5319 33.375 31.875 33.375H16.125C14.4681 33.375 13.125 32.0319 13.125 30.375V17.625Z" stroke="#BABABA" stroke-width="1.5" stroke-linecap="round" stroke-linejoin="round"/>
<path d="M14.25 15.75L24 24.375L33.75 15.75" stroke="#BABABA" stroke-width="1.5" stroke-linecap="round" stroke-linejoin="round"/>
</g>
<defs>
<linearGradient id="paint0_linear_2154_637" x1="5.07362" y1="-7.54956" x2="39.4887" y2="56.6919" gradientUnits="userSpaceOnUse">
<stop stop-color="#353535"/>
</linearGradient>
<linearGradient id="paint1_linear_2154_637" x1="5.07362" y1="-7.54956" x2="39.4887" y2="56.6919" gradientUnits="userSpaceOnUse">
<stop stop-color="#353535"/>
</linearGradient>
<clipPath id="clip0_2154_637">
<rect width="48" height="48" rx="6" fill="white"/>
</clipPath>
</defs>
</svg>
