<svg width="48" height="48" viewBox="0 0 48 48" fill="none" xmlns="http://www.w3.org/2000/svg">
<rect width="48" height="48" rx="8" fill="#353535"/>
<path fill-rule="evenodd" clip-rule="evenodd" d="M20.2676 12.5C20.5437 12.5 20.7676 12.7239 20.7676 13V16.7666H26.166V13C26.166 12.7239 26.3899 12.5 26.666 12.5C26.9422 12.5 27.166 12.7239 27.166 13V16.7666H32C32.2761 16.7666 32.5 16.9905 32.5 17.2666V22.9323C32.5 24.7323 31.8092 26.4619 30.5743 27.7397L27.9286 30.4774V33.8231C27.9286 34.9539 27.0385 35.8999 25.9048 35.8999H22.0952C20.9615 35.8999 20.0714 34.9539 20.0714 33.8231V30.4774L17.4257 27.7397C16.1908 26.4619 15.5 24.7323 15.5 22.9323V17.2666C15.5 16.9905 15.7239 16.7666 16 16.7666H19.7676V13C19.7676 12.7239 19.9914 12.5 20.2676 12.5ZM26.6579 17.7666C26.6606 17.7666 26.6633 17.7667 26.666 17.7667C26.6687 17.7667 26.6715 17.7666 26.6742 17.7666H31.5V22.9323C31.5 24.4779 30.9065 25.9569 29.8552 27.0448L27.069 29.9278C26.9789 30.0211 26.9286 30.1456 26.9286 30.2753V33.8231C26.9286 34.4341 26.4542 34.8999 25.9048 34.8999H22.0952C21.5458 34.8999 21.0714 34.4341 21.0714 33.8231V30.2753C21.0714 30.1456 21.0211 30.0211 20.931 29.9278L18.1448 27.0448C17.0935 25.9569 16.5 24.4779 16.5 22.9323V17.7666H20.2594L20.2676 17.7667L20.2757 17.7666H26.6579Z" fill="#BABABA"/>
</svg>
