<svg width="48" height="48" viewBox="0 0 48 48" fill="none" xmlns="http://www.w3.org/2000/svg">
<rect width="48" height="48" rx="8" fill="#353535"/>
<path fill-rule="evenodd" clip-rule="evenodd" d="M15 22.4138C15 17.1269 19.2432 13 23.9845 13C28.7259 13 32.9691 17.1269 32.9691 22.4138C32.9691 23.8787 32.4199 25.4011 31.5552 26.8833C30.6926 28.3621 29.5351 29.768 28.3655 30.9906C27.1974 32.2115 26.0276 33.2388 25.1489 33.9613C24.71 34.3222 24.3447 34.6063 24.0899 34.7996C24.0523 34.8281 24.0172 34.8546 23.9845 34.8791C23.9519 34.8546 23.9167 34.8281 23.8792 34.7996C23.6244 34.6063 23.2591 34.3222 22.8201 33.9613C21.9415 33.2388 20.7716 32.2115 19.6036 30.9906C18.434 29.768 17.2765 28.3621 16.4138 26.8833C15.5492 25.4011 15 23.8787 15 22.4138ZM23.6946 35.9073C23.6947 35.9075 23.6949 35.9075 23.9845 35.5L23.6949 35.9075C23.8683 36.0308 24.1008 36.0308 24.2742 35.9075L23.9845 35.5C24.2742 35.9075 24.2743 35.9075 24.2745 35.9073L24.275 35.907L24.2766 35.9058L24.2825 35.9016L24.3043 35.8859C24.3232 35.8723 24.3509 35.8522 24.3867 35.826C24.4582 35.7736 24.5623 35.6964 24.6943 35.5963C24.9581 35.3961 25.3338 35.1039 25.7841 34.7337C26.6838 33.9939 27.885 32.9394 29.0881 31.6819C30.2896 30.4259 31.5033 28.9569 32.419 27.3872C33.3327 25.8209 33.9691 24.1213 33.9691 22.4138C33.9691 16.5972 29.3005 12 23.9845 12C18.6686 12 14 16.5972 14 22.4138C14 24.1213 14.6364 25.8209 15.5501 27.3872C16.4658 28.9569 17.6794 30.4259 18.881 31.6819C20.084 32.9394 21.2853 33.9939 22.185 34.7337C22.6353 35.1039 23.0109 35.3961 23.2748 35.5963C23.4068 35.6964 23.5109 35.7736 23.5824 35.826C23.6182 35.8522 23.6458 35.8723 23.6648 35.8859L23.6866 35.9016L23.6924 35.9058L23.6941 35.907L23.6946 35.9073ZM20.6895 21.6995C20.6895 19.9575 22.1497 18.5195 23.9833 18.5195C25.8169 18.5195 27.2771 19.9575 27.2771 21.6995C27.2771 23.4416 25.8169 24.8795 23.9833 24.8795C22.1497 24.8795 20.6895 23.4416 20.6895 21.6995ZM23.9833 17.5195C21.6263 17.5195 19.6895 19.3767 19.6895 21.6995C19.6895 24.0223 21.6263 25.8795 23.9833 25.8795C26.3402 25.8795 28.2771 24.0223 28.2771 21.6995C28.2771 19.3767 26.3402 17.5195 23.9833 17.5195Z" fill="#BABABA"/>
</svg>
