<svg width="48" height="48" viewBox="0 0 48 48" fill="none" xmlns="http://www.w3.org/2000/svg">
<g clip-path="url(#clip0_2154_648)">
<rect width="48" height="48" rx="6" fill="#353535"/>
<g filter="url(#filter0_i_2154_648)">
<path d="M-8 -8H56V56H-8V-8Z" fill="url(#paint0_linear_2154_648)"/>
</g>
<path d="M32.25 13.5H15.75C15.1533 13.5 14.581 13.7371 14.159 14.159C13.7371 14.581 13.5 15.1533 13.5 15.75V27.75C13.5 28.3467 13.7371 28.919 14.159 29.341C14.581 29.7629 15.1533 30 15.75 30H17.1142L16.5143 33.6262C16.4889 33.7781 16.5109 33.9341 16.5773 34.0731C16.6437 34.212 16.7513 34.3272 16.8854 34.4028C17.0195 34.4785 17.1736 34.5111 17.3269 34.4962C17.4801 34.4812 17.6251 34.4194 17.742 34.3193L22.7775 30H32.25C32.8467 30 33.419 29.7629 33.841 29.341C34.2629 28.919 34.5 28.3467 34.5 27.75V15.75C34.5 15.1533 34.2629 14.581 33.841 14.159C33.419 13.7371 32.8467 13.5 32.25 13.5ZM33 27.75C33 27.9489 32.921 28.1397 32.7803 28.2803C32.6397 28.421 32.4489 28.5 32.25 28.5H22.5C22.3209 28.5 22.1477 28.5641 22.0117 28.6807L18.3293 31.8375L18.7395 29.3738C18.7575 29.2663 18.7518 29.1562 18.7229 29.0512C18.6941 28.9461 18.6426 28.8486 18.5723 28.7655C18.5019 28.6823 18.4142 28.6155 18.3154 28.5696C18.2166 28.5238 18.1089 28.5 18 28.5H15.75C15.5511 28.5 15.3603 28.421 15.2197 28.2803C15.079 28.1397 15 27.9489 15 27.75V15.75C15 15.5511 15.079 15.3603 15.2197 15.2197C15.3603 15.079 15.5511 15 15.75 15H32.25C32.4489 15 32.6397 15.079 32.7803 15.2197C32.921 15.3603 33 15.5511 33 15.75V27.75Z" fill="#BABABA"/>
</g>
<defs>
<filter id="filter0_i_2154_648" x="-8" y="-8" width="64" height="64" filterUnits="userSpaceOnUse" color-interpolation-filters="sRGB">
<feFlood flood-opacity="0" result="BackgroundImageFix"/>
<feBlend mode="normal" in="SourceGraphic" in2="BackgroundImageFix" result="shape"/>
<feColorMatrix in="SourceAlpha" type="matrix" values="0 0 0 0 0 0 0 0 0 0 0 0 0 0 0 0 0 0 127 0" result="hardAlpha"/>
<feOffset dy="-1.3623"/>
<feComposite in2="hardAlpha" operator="arithmetic" k2="-1" k3="1"/>
<feColorMatrix type="matrix" values="0 0 0 0 0.0416667 0 0 0 0 0.0416667 0 0 0 0 0.0416667 0 0 0 0.4 0"/>
<feBlend mode="normal" in2="shape" result="effect1_innerShadow_2154_648"/>
</filter>
<linearGradient id="paint0_linear_2154_648" x1="5.07362" y1="-7.54956" x2="39.4887" y2="56.6919" gradientUnits="userSpaceOnUse">
<stop stop-color="#353535"/>
</linearGradient>
<clipPath id="clip0_2154_648">
<rect width="48" height="48" rx="6" fill="white"/>
</clipPath>
</defs>
</svg>
