<svg width="104" height="56" viewBox="0 0 104 56" fill="none" xmlns="http://www.w3.org/2000/svg">
<rect width="104" height="56" rx="8" fill="#171717"/>
<rect x="8" y="8" width="40" height="40" rx="4" fill="#232323"/>
<g clip-path="url(#clip0_10_6576)">
<path fill-rule="evenodd" clip-rule="evenodd" d="M24.5 15.85C24.859 15.85 25.15 16.141 25.15 16.5V18.85H30.85V16.5C30.85 16.141 31.141 15.85 31.5 15.85C31.859 15.85 32.15 16.141 32.15 16.5V18.85H33.2619C35.4092 18.85 37.15 20.5907 37.15 22.7381V23.85H39.5C39.859 23.85 40.15 24.141 40.15 24.5C40.15 24.859 39.859 25.15 39.5 25.15H37.15V30.85H39.5C39.859 30.85 40.15 31.141 40.15 31.5C40.15 31.859 39.859 32.15 39.5 32.15H37.15V33.2619C37.15 35.4092 35.4092 37.15 33.2619 37.15H32.15V39.5C32.15 39.859 31.859 40.15 31.5 40.15C31.141 40.15 30.85 39.859 30.85 39.5V37.15H25.15V39.5C25.15 39.859 24.859 40.15 24.5 40.15C24.141 40.15 23.85 39.859 23.85 39.5V37.15H22.7381C20.5907 37.15 18.85 35.4092 18.85 33.2619V32.15H16.5C16.141 32.15 15.85 31.859 15.85 31.5C15.85 31.141 16.141 30.85 16.5 30.85H18.85V25.15H16.5C16.141 25.15 15.85 24.859 15.85 24.5C15.85 24.141 16.141 23.85 16.5 23.85H18.85V22.7381C18.85 20.5907 20.5907 18.85 22.7381 18.85H23.85V16.5C23.85 16.141 24.141 15.85 24.5 15.85ZM20.15 31.5V33.2619C20.15 34.6912 21.3087 35.85 22.7381 35.85H24.5H31.5H33.2619C34.6912 35.85 35.85 34.6912 35.85 33.2619V31.5V24.5V22.7381C35.85 21.3087 34.6912 20.15 33.2619 20.15H31.5H24.5H22.7381C21.3087 20.15 20.15 21.3087 20.15 22.7381V24.5V31.5Z" fill="#BABABA"/>
</g>
<rect x="56" y="8" width="40" height="40" rx="4" fill="#232323"/>
<path d="M88.35 28C88.35 30.518 87.0248 32.8414 84.7961 34.5559C82.5666 36.2708 79.4589 37.35 76 37.35C72.5411 37.35 69.4334 36.2708 67.2039 34.5559C64.9752 32.8414 63.65 30.518 63.65 28C63.65 25.482 64.9752 23.1586 67.2039 21.4441C69.4334 19.7292 72.5411 18.65 76 18.65C79.4589 18.65 82.5666 19.7292 84.7961 21.4441C87.0248 23.1586 88.35 25.482 88.35 28Z" stroke="#BABABA" stroke-width="1.3"/>
<defs>
<clipPath id="clip0_10_6576">
<rect width="24" height="24" fill="white" transform="translate(16 16)"/>
</clipPath>
</defs>
</svg>
