<svg width="48" height="48" viewBox="0 0 48 48" fill="none" xmlns="http://www.w3.org/2000/svg">
<rect width="48" height="48" rx="8" fill="#353535"/>
<path fill-rule="evenodd" clip-rule="evenodd" d="M19 12.5C18.7239 12.5 18.5 12.7239 18.5 13V19.5H16C15.7239 19.5 15.5 19.7239 15.5 20V32.1429C15.5 33.122 16.0241 33.9723 16.8004 34.5614C17.5763 35.1503 18.626 35.5 19.7647 35.5H28.2353C29.374 35.5 30.4237 35.1503 31.1996 34.5614C31.9759 33.9723 32.5 33.122 32.5 32.1429V20C32.5 19.7239 32.2761 19.5 32 19.5H29.5V13C29.5 12.7239 29.2761 12.5 29 12.5H19ZM28.5 19.5V13.5H19.5V19.5H28.5ZM19 20.5H16.5V32.1429C16.5 32.7417 16.8186 33.3199 17.4049 33.7649C17.9916 34.2101 18.8242 34.5 19.7647 34.5H28.2353C29.1758 34.5 30.0084 34.2101 30.5951 33.7649C31.1814 33.3199 31.5 32.7417 31.5 32.1429V20.5H29H19ZM22 15.5C22.2761 15.5 22.5 15.7239 22.5 16V17C22.5 17.2761 22.2761 17.5 22 17.5C21.7239 17.5 21.5 17.2761 21.5 17V16C21.5 15.7239 21.7239 15.5 22 15.5ZM26.5 16C26.5 15.7239 26.2761 15.5 26 15.5C25.7239 15.5 25.5 15.7239 25.5 16V17C25.5 17.2761 25.7239 17.5 26 17.5C26.2761 17.5 26.5 17.2761 26.5 17V16Z" fill="#BABABA"/>
</svg>
