<svg width="20" height="24" viewBox="0 0 20 24" fill="none" xmlns="http://www.w3.org/2000/svg">
<path fill-rule="evenodd" clip-rule="evenodd" d="M1.00012 10.4138C1.00012 5.12694 5.2433 1 9.98466 1C14.726 1 18.9692 5.12694 18.9692 10.4138C18.9692 11.8787 18.42 13.4011 17.5553 14.8833C16.6927 16.3621 15.5352 17.768 14.3656 18.9906C13.1976 20.2115 12.0277 21.2388 11.1491 21.9613C10.7101 22.3222 10.3448 22.6063 10.09 22.7996C10.0525 22.8281 10.0173 22.8546 9.98466 22.8791C9.95202 22.8546 9.91687 22.8281 9.8793 22.7996C9.6245 22.6063 9.2592 22.3222 8.82026 21.9613C7.94162 21.2388 6.77175 20.2115 5.60368 18.9906C4.43408 17.768 3.27662 16.3621 2.41397 14.8833C1.54934 13.4011 1.00012 11.8787 1.00012 10.4138ZM9.6947 23.9073C9.69486 23.9075 9.69499 23.9075 9.98466 23.5L9.69499 23.9075C9.86843 24.0308 10.1009 24.0308 10.2743 23.9075L9.98466 23.5C10.2743 23.9075 10.2745 23.9075 10.2746 23.9073L10.2751 23.907L10.2768 23.9058L10.2826 23.9016L10.3044 23.8859C10.3234 23.8723 10.351 23.8522 10.3868 23.826C10.4583 23.7736 10.5624 23.6964 10.6944 23.5963C10.9583 23.3961 11.3339 23.1039 11.7842 22.7337C12.6839 21.9939 13.8852 20.9394 15.0882 19.6819C16.2897 18.4259 17.5034 16.9569 18.4191 15.3872C19.3328 13.8209 19.9692 12.1213 19.9692 10.4138C19.9692 4.5972 15.3006 0 9.98466 0C4.66874 0 0.00012207 4.5972 0.00012207 10.4138C0.00012207 12.1213 0.636475 13.8209 1.5502 15.3872C2.46589 16.9569 3.67957 18.4259 4.8811 19.6819C6.08416 20.9394 7.28543 21.9939 8.18514 22.7337C8.63537 23.1039 9.01105 23.3961 9.27494 23.5963C9.40691 23.6964 9.51099 23.7736 9.58253 23.826C9.6183 23.8522 9.64595 23.8723 9.66488 23.8859L9.68668 23.9016L9.69255 23.9058L9.6942 23.907L9.6947 23.9073ZM6.68958 9.69953C6.68958 7.95751 8.1498 6.51953 9.98339 6.51953C11.817 6.51953 13.2772 7.95751 13.2772 9.69953C13.2772 11.4416 11.817 12.8795 9.98339 12.8795C8.1498 12.8795 6.68958 11.4416 6.68958 9.69953ZM9.98339 5.51953C7.62645 5.51953 5.68958 7.37673 5.68958 9.69953C5.68958 12.0223 7.62645 13.8795 9.98339 13.8795C12.3403 13.8795 14.2772 12.0223 14.2772 9.69953C14.2772 7.37673 12.3403 5.51953 9.98339 5.51953Z" fill="url(#paint0_linear_2081_112)"/>
<defs>
<linearGradient id="paint0_linear_2081_112" x1="9.98466" y1="0" x2="9.98466" y2="24" gradientUnits="userSpaceOnUse">
<stop stop-color="white"/>
<stop offset="1" stop-color="#999999"/>
</linearGradient>
</defs>
</svg>
