<svg width="24" height="24" viewBox="0 0 24 24" fill="none" xmlns="http://www.w3.org/2000/svg">
<g filter="url(#filter0_d_2112_304)">
<path fill-rule="evenodd" clip-rule="evenodd" d="M8.50012 0C8.77626 0 9.00012 0.223858 9.00012 0.5V3H15.0001V0.5C15.0001 0.223858 15.224 0 15.5001 0C15.7763 0 16.0001 0.223858 16.0001 0.5V3H17.262C19.3265 3 21.0001 4.6736 21.0001 6.7381V8H23.5001C23.7763 8 24.0001 8.22386 24.0001 8.5C24.0001 8.77614 23.7763 9 23.5001 9H21.0001V15H23.5001C23.7763 15 24.0001 15.2239 24.0001 15.5C24.0001 15.7761 23.7763 16 23.5001 16H21.0001V17.2619C21.0001 19.3264 19.3265 21 17.262 21H16.0001V23.5C16.0001 23.7761 15.7763 24 15.5001 24C15.224 24 15.0001 23.7761 15.0001 23.5V21H9.00012V23.5C9.00012 23.7761 8.77626 24 8.50012 24C8.22398 24 8.00012 23.7761 8.00012 23.5V21H6.73822C4.67372 21 3.00012 19.3264 3.00012 17.2619V16H0.500122C0.22398 16 0.00012207 15.7761 0.00012207 15.5C0.00012207 15.2239 0.22398 15 0.500122 15H3.00012V9H0.500122C0.22398 9 0.00012207 8.77614 0.00012207 8.5C0.00012207 8.22386 0.22398 8 0.500122 8H3.00012V6.7381C3.00012 4.6736 4.67372 3 6.73822 3H8.00012V0.5C8.00012 0.223858 8.22398 0 8.50012 0ZM4.00012 15.5V17.2619C4.00012 18.7741 5.22601 20 6.73822 20H8.50012H15.5001H17.262C18.7742 20 20.0001 18.7741 20.0001 17.2619V15.5V8.5V6.7381C20.0001 5.22589 18.7742 4 17.262 4H15.5001H8.50012H6.73822C5.22601 4 4.00012 5.22589 4.00012 6.7381V8.5V15.5Z" fill="url(#paint0_linear_2112_304)"/>
</g>
<defs>
<filter id="filter0_d_2112_304" x="-3.99988" y="0" width="32" height="32" filterUnits="userSpaceOnUse" color-interpolation-filters="sRGB">
<feFlood flood-opacity="0" result="BackgroundImageFix"/>
<feColorMatrix in="SourceAlpha" type="matrix" values="0 0 0 0 0 0 0 0 0 0 0 0 0 0 0 0 0 0 127 0" result="hardAlpha"/>
<feOffset dy="4"/>
<feGaussianBlur stdDeviation="2"/>
<feComposite in2="hardAlpha" operator="out"/>
<feColorMatrix type="matrix" values="0 0 0 0 0 0 0 0 0 0 0 0 0 0 0 0 0 0 0.25 0"/>
<feBlend mode="normal" in2="BackgroundImageFix" result="effect1_dropShadow_2112_304"/>
<feBlend mode="normal" in="SourceGraphic" in2="effect1_dropShadow_2112_304" result="shape"/>
</filter>
<linearGradient id="paint0_linear_2112_304" x1="12.0001" y1="0" x2="12.0001" y2="24" gradientUnits="userSpaceOnUse">
<stop stop-color="white"/>
<stop offset="1" stop-color="#999999"/>
</linearGradient>
</defs>
</svg>
