<svg width="24" height="24" viewBox="0 0 24 24" fill="none" xmlns="http://www.w3.org/2000/svg">
<path fill-rule="evenodd" clip-rule="evenodd" d="M8.2677 0.5C8.54384 0.5 8.7677 0.723858 8.7677 1V4.7666H14.1661V1C14.1661 0.723858 14.39 0.5 14.6661 0.5C14.9423 0.5 15.1661 0.723858 15.1661 1V4.7666H20.0001C20.2763 4.7666 20.5001 4.99046 20.5001 5.2666V10.9323C20.5001 12.7323 19.8093 14.4619 18.5744 15.7397L15.9287 18.4774V21.8231C15.9287 22.9539 15.0386 23.8999 13.9049 23.8999H10.0954C8.96167 23.8999 8.07155 22.9539 8.07155 21.8231V18.4774L5.42583 15.7397C4.19097 14.4619 3.50012 12.7323 3.50012 10.9323V5.2666C3.50012 4.99046 3.72398 4.7666 4.00012 4.7666H7.7677V1C7.7677 0.723858 7.99156 0.5 8.2677 0.5ZM14.658 5.7666C14.6607 5.76664 14.6634 5.76667 14.6661 5.76667C14.6689 5.76667 14.6716 5.76664 14.6743 5.7666H19.5001V10.9323C19.5001 12.4779 18.9066 13.9569 17.8553 15.0448L15.0691 17.9278C14.9791 18.0211 14.9287 18.1456 14.9287 18.2753V21.8231C14.9287 22.4341 14.4543 22.8999 13.9049 22.8999H10.0954C9.5459 22.8999 9.07155 22.4341 9.07155 21.8231V18.2753C9.07155 18.1456 9.02119 18.0211 8.9311 17.9278L6.14492 15.0448C5.09363 13.9569 4.50012 12.4779 4.50012 10.9323V5.7666H8.25953L8.2677 5.76667L8.27587 5.7666H14.658Z" fill="url(#paint0_linear_10_6811)"/>
<defs>
<linearGradient id="paint0_linear_10_6811" x1="12.0001" y1="0.5" x2="12.0001" y2="23.8999" gradientUnits="userSpaceOnUse">
<stop stop-color="white"/>
<stop offset="1" stop-color="#999999"/>
</linearGradient>
</defs>
</svg>
