<svg width="24" height="24" viewBox="0 0 24 24" fill="none" xmlns="http://www.w3.org/2000/svg">
<path fill-rule="evenodd" clip-rule="evenodd" d="M7.00012 0.5C6.72398 0.5 6.50012 0.723858 6.50012 1V7.5H4.00012C3.72398 7.5 3.50012 7.72386 3.50012 8V20.1429C3.50012 21.122 4.02425 21.9723 4.80051 22.5614C5.57641 23.1503 6.62612 23.5 7.76483 23.5H16.2354C17.3741 23.5 18.4238 23.1503 19.1997 22.5614C19.976 21.9723 20.5001 21.122 20.5001 20.1429V8C20.5001 7.72386 20.2763 7.5 20.0001 7.5H17.5001V1C17.5001 0.723858 17.2763 0.5 17.0001 0.5H7.00012ZM16.5001 7.5V1.5H7.50012V7.5H16.5001ZM7.00012 8.5H4.50012V20.1429C4.50012 20.7417 4.81875 21.3199 5.40505 21.7649C5.9917 22.2101 6.82435 22.5 7.76483 22.5H16.2354C17.1759 22.5 18.0085 22.2101 18.5952 21.7649C19.1815 21.3199 19.5001 20.7417 19.5001 20.1429V8.5H17.0001H7.00012ZM10.0001 3.5C10.2763 3.5 10.5001 3.72386 10.5001 4V5C10.5001 5.27614 10.2763 5.5 10.0001 5.5C9.72398 5.5 9.50012 5.27614 9.50012 5V4C9.50012 3.72386 9.72398 3.5 10.0001 3.5ZM14.5001 4C14.5001 3.72386 14.2763 3.5 14.0001 3.5C13.724 3.5 13.5001 3.72386 13.5001 4V5C13.5001 5.27614 13.724 5.5 14.0001 5.5C14.2763 5.5 14.5001 5.27614 14.5001 5V4Z" fill="url(#paint0_linear_10_6783)"/>
<defs>
<linearGradient id="paint0_linear_10_6783" x1="12.0001" y1="0.5" x2="12.0001" y2="23.5" gradientUnits="userSpaceOnUse">
<stop stop-color="white"/>
<stop offset="1" stop-color="#999999"/>
</linearGradient>
</defs>
</svg>
